<?xml version="1.0" encoding="utf-8"?>
<!-- Generator: Adobe Illustrator 25.2.3, SVG Export Plug-In . SVG Version: 6.00 Build 0)  -->
<svg version="1.1" id="Слой_1" xmlns="http://www.w3.org/2000/svg" xmlns:xlink="http://www.w3.org/1999/xlink" x="0px" y="0px"
	 width="39px" height="39px" viewBox="0 0 39 39" style="enable-background:new 0 0 39 39;" xml:space="preserve"
	 fill="white">
<style type="text/css">
	.st0{fill:none;stroke:white;stroke-width:2.5;}
</style>
<path class="st0" d="M6,1.2h27c2.6,0,4.8,2.1,4.8,4.8v27c0,2.6-2.1,4.8-4.8,4.8H6c-2.6,0-4.8-2.1-4.8-4.8V6C1.2,3.4,3.4,1.2,6,1.2z"
	/>
<g>
	<path d="M5.7,17.3c0.5-0.4,1-0.8,1.6-1.1c6.7-2.6,13.4-5.2,20.2-7.7C28.2,8.2,29,8,29.7,8.6c0.7,0.6,0.6,1.4,0.4,2.2
		C29,16.2,28,21.6,26.9,27c-0.5,2.3-1.8,2.7-3.7,1.3c-1.8-1.5-3.7-3-5.5-4.5c-1-0.8-1-1.1-0.1-2.1c2.3-2.4,4.6-4.9,6.9-7.3 
		c0.2-0.2,0.4-0.3,0.5-0.6c0.1-0.3,0.2-0.7,0.1-0.9c-0.1-0.2-0.6-0.2-0.9-0.2c-0.2,0-0.5,0.2-0.7,0.3c-4.2,2.2-8.5,4.4-12.7,6.5
		c-0.4,0.2-1,0.2-1.5,0.1c-0.7-0.1-1.3-0.3-1.9-0.5c-0.6-0.3-1-0.7-1.6-1C5.7,17.8,5.7,17.6,5.7,17.3z"/>
	<path d="M20.7,16.3c-1.4,1.5-2.9,3-4.2,4.5c-0.4,0.4-0.7,1-0.8,1.6c-0.5,1.7-0.9,3.5-1.3,5.3c-0.1,0-0.2,0.1-0.3,0.1
		c-0.8-2.3-1.6-4.6-2.5-7c3.1-1.6,6.1-3.1,9.1-4.6C20.6,16.2,20.6,16.2,20.7,16.3z" />
	<path d="M18.7,26.4c-1,0.8-1.9,1.5-2.8,2.2c-0.1-0.1-0.2-0.2-0.3-0.2c0.3-1.2,0.6-2.4,0.9-3.7C17.2,25.2,17.9,25.8,18.7,26.4z" />
</g>
</svg>
