<?xml version="1.0" encoding="UTF-8"?>
<svg version="1.1" viewBox="0 0 1200 1200" width="1280" height="1280" xmlns="http://www.w3.org/2000/svg">
<path transform="translate(120,360)" d="m0 0h960v210h-960z" fill="#D0DC97"/>
<path transform="translate(553,636)" d="m0 0h10l9 4 6 7 3 8v11l6 2 6 5 5 8 1 3v7l-14 20-13 19h25l-2 5-11 15-11 16-1 38h-28v-37h-8l-13-4-8-6-6-9-2-6-1-10 2-9 5-9 6-6-3-10v-12l4-10 7-7 6-3 1-7 2-9 4-6 7-6z" fill="#658361"/>
<path transform="translate(642,636)" d="m0 0 4 5 13 18 15 22v1h-15l9 14 14 20 2 4-22 1 28 40 3 4v2h-37v37h-28v-37h-37l4-7 12-17 14-20 2-3h-22l2-5 12-17 11-16h-16l7-11 24-34z" fill="#658361"/>
<path transform="translate(491,407)" d="m0 0h53v5l-11 2 1 74 9 2v5h-42v-5l11-2v-31h-15l-2 6-12 23-5 9h-29v-5l10-3 10-18 7-12 1-3-6-2-7-8-2-5-1-9 2-9 7-8 10-4z" fill="#658361"/>
<path transform="translate(716,431)" d="m0 0h9l11 4 6 7 3 9v22l-4 11-6 7-8 4-5 1h-10l-9-2v24l8 1 2 3-1 2h-34l1-5 6-1v-79l-7-2v-4h25l1 2 6-3z" fill="#658361"/>
<path transform="translate(557,433)" d="m0 0h40l10 2 6 3 4 5 1 7-3 7-7 4-3 1 11 4 5 6 1 6-2 8-7 6-14 3h-42l1-5 4-1v-50l-5-2z" fill="#658361"/>
<path transform="translate(750,705)" d="m0 0h105v15h-105z" fill="#D0DC97"/>
<path transform="translate(345,705)" d="m0 0h105v15h-105z" fill="#D0DC97"/>
<path transform="translate(801,630)" d="m0 0h2l7 18v2h18l3 1-1 3-10 8-4 4 4 15v5l-8-4-9-6-5 2-13 8h-1l1-9 3-12-11-9-4-3v-2l4-1 16-1z" fill="#D0DC97"/>
<path transform="translate(396,630)" d="m0 0h2l7 18v2h18l3 1-1 3-10 8-4 4 4 15v5l-8-4-9-6-5 2-13 8h-1l1-9 3-12-11-9-4-3v-2l4-1 16-1z" fill="#D0DC97"/>
<path transform="translate(636,433)" d="m0 0h25v55l6 3v4h-32l1-5 5-1v-50l-5-2-1-2z" fill="#658361"/>
<path transform="translate(709,438)" d="m0 0h9l5 4 3 8 1 16-2 14-4 7-3 2h-11l-4-2v-46l2-2z" fill="#D0DC97"/>
<path transform="translate(494,414)" d="m0 0h18v36h-17l-7-3-4-4-2-4v-15l4-6z" fill="#D0DC97"/>
<path transform="translate(582,466)" d="m0 0h13l5 3 3 5-1 9-5 5-2 1h-13l-1-10v-9z" fill="#D0DC97"/>
<path transform="translate(582,439)" d="m0 0h10l5 3 2 4-1 9-5 5h-11l-1-8v-10z" fill="#D0DC97"/>
<path transform="translate(649,401)" d="m0 0 7 1 4 3 1 3v7l-5 5-7 1-5-3-3-5 1-7 4-4z" fill="#658361"/>
</svg>
