<svg xmlns="http://www.w3.org/2000/svg" xmlns:xlink="http://www.w3.org/1999/xlink" width="500" zoomAndPan="magnify" viewBox="0 0 375 374.999991" height="500" preserveAspectRatio="xMidYMid meet" version="1.0"><defs><g/><clipPath id="80fe035bd2"><path d="M 91 58 L 264.769531 58 L 264.769531 286 L 91 286 Z M 91 58 " clip-rule="nonzero"/></clipPath><clipPath id="bbefa9576f"><path d="M 78.871094 142.785156 L 276.253906 142.785156 L 276.253906 187.5 L 78.871094 187.5 Z M 78.871094 142.785156 " clip-rule="nonzero"/></clipPath></defs><g clip-path="url(#80fe035bd2)"><path fill="#000000" d="M 95.65625 145.472656 C 94.246094 146.886719 91.898438 148.296875 91.898438 150.648438 C 91.898438 152.527344 94.246094 154.882812 96.125 153.941406 C 96.125 153.46875 96.597656 153.46875 97.066406 153.941406 C 96.597656 155.351562 97.066406 156.761719 97.535156 157.703125 C 96.597656 159.113281 95.1875 161.464844 96.125 162.878906 C 96.597656 163.816406 99.886719 164.757812 97.535156 168.992188 C 96.597656 170.402344 95.65625 171.8125 96.125 173.226562 C 96.125 174.164062 97.535156 175.105469 98.476562 175.105469 C 99.886719 175.105469 98.945312 176.515625 98.945312 176.988281 C 98.476562 177.929688 97.535156 179.339844 97.535156 180.28125 C 96.597656 181.691406 98.007812 183.101562 99.886719 183.574219 C 99.886719 185.925781 95.65625 189.6875 98.007812 192.507812 L 101.292969 192.507812 L 99.414062 198.152344 C 99.414062 198.625 99.414062 198.625 99.886719 199.09375 C 105.523438 204.269531 113.507812 195.800781 118.207031 193.921875 C 122.433594 192.507812 122.433594 195.800781 123.371094 196.742188 C 124.78125 198.152344 127.132812 197.210938 128.539062 195.332031 C 129.480469 194.390625 131.359375 193.921875 132.769531 194.390625 C 132.769531 194.390625 133.238281 194.390625 133.238281 194.859375 C 133.707031 194.859375 133.707031 195.332031 134.175781 195.332031 C 134.648438 195.800781 135.117188 196.273438 136.054688 196.273438 C 146.390625 203.796875 165.179688 223.550781 165.652344 226.375 C 166.121094 227.785156 165.652344 228.726562 165.652344 230.136719 C 165.652344 232.960938 167.53125 234.839844 168.46875 237.191406 C 169.878906 240.015625 166.121094 243.777344 166.121094 247.539062 C 166.121094 253.65625 162.832031 259.769531 162.832031 265.882812 C 163.300781 276.703125 162.832031 279.996094 155.316406 285.167969 L 191.957031 285.167969 C 183.972656 278.113281 183.5 263.0625 183.972656 252.714844 C 184.441406 247.539062 181.621094 241.898438 183.5 237.191406 C 184.910156 233.902344 186.789062 231.078125 188.667969 227.785156 C 190.078125 224.492188 191.019531 220.730469 192.425781 217.4375 C 197.59375 202.386719 205.582031 197.683594 214.507812 193.449219 C 222.960938 194.390625 222.492188 192.039062 221.082031 197.210938 C 220.144531 199.09375 226.25 200.035156 229.539062 198.152344 C 234.707031 195.800781 231.886719 190.628906 234.234375 191.570312 C 238.933594 193.449219 243.160156 194.859375 247.390625 194.859375 C 249.269531 194.859375 252.085938 193.921875 252.554688 192.039062 C 253.027344 191.097656 251.617188 191.097656 251.617188 190.628906 C 251.617188 189.21875 253.027344 188.746094 253.964844 188.277344 C 255.375 188.746094 256.3125 189.21875 257.253906 188.277344 C 257.722656 187.804688 257.253906 186.394531 256.785156 186.394531 C 256.3125 186.394531 256.3125 186.394531 255.84375 186.394531 C 257.253906 182.632812 252.085938 184.984375 251.617188 183.574219 C 249.738281 177.457031 255.84375 181.222656 257.722656 179.808594 C 258.195312 179.339844 258.195312 178.398438 257.253906 178.398438 C 256.3125 178.398438 255.84375 178.398438 255.375 177.929688 C 256.3125 176.988281 256.785156 175.578125 256.3125 173.695312 C 256.3125 172.285156 255.375 172.753906 254.433594 172.285156 C 256.785156 171.34375 258.664062 169.460938 258.195312 167.109375 C 258.195312 166.167969 256.785156 166.640625 255.84375 165.230469 C 256.785156 164.289062 258.664062 161.9375 258.195312 160.523438 C 258.664062 160.523438 258.664062 160.054688 259.132812 160.054688 C 260.542969 159.113281 261.953125 158.171875 261.953125 156.292969 C 262.421875 153.46875 258.195312 150.648438 260.074219 147.824219 C 261.011719 145.945312 264.769531 145.003906 264.769531 143.121094 C 264.769531 142.652344 264.300781 142.652344 264.300781 142.179688 C 262.890625 141.242188 260.542969 141.710938 259.132812 142.652344 C 258.664062 143.121094 257.722656 142.652344 257.722656 141.710938 C 258.195312 140.300781 258.664062 138.890625 259.132812 137.476562 C 260.074219 135.597656 259.601562 132.304688 257.253906 132.304688 C 256.3125 132.304688 255.375 132.304688 254.433594 132.304688 C 252.085938 132.304688 250.207031 129.480469 250.675781 127.601562 C 251.148438 126.1875 248.328125 126.1875 244.570312 126.1875 C 242.691406 126.1875 242.691406 120.546875 246.917969 118.191406 C 247.859375 117.722656 247.390625 116.78125 246.449219 116.3125 C 244.570312 116.3125 239.871094 118.191406 239.402344 115.371094 C 238.933594 113.960938 239.871094 108.316406 244.101562 105.492188 C 245.980469 104.082031 247.859375 103.140625 248.796875 100.789062 C 249.738281 98.910156 248.328125 96.558594 246.917969 96.558594 C 245.039062 96.558594 246.917969 88.089844 247.859375 86.210938 C 248.796875 84.328125 243.632812 84.796875 241.75 85.738281 C 240.34375 86.210938 238.933594 82.445312 240.8125 79.625 C 242.222656 77.742188 237.054688 77.742188 234.707031 78.214844 C 232.828125 78.683594 232.828125 72.570312 233.296875 70.6875 C 233.296875 67.867188 227.660156 72.097656 227.660156 69.746094 C 227.660156 56.578125 230.476562 59.871094 215.914062 64.574219 C 206.050781 67.867188 203.703125 60.808594 202.761719 59.871094 C 200.414062 57.988281 197.59375 60.339844 195.246094 61.28125 C 190.546875 62.691406 186.320312 58.457031 181.621094 58.457031 C 175.984375 58.457031 169.878906 63.160156 165.179688 59.871094 C 161.894531 57.515625 161.894531 57.515625 158.605469 60.339844 C 153.4375 64.574219 148.738281 59.398438 144.980469 58.929688 C 142.632812 58.457031 140.285156 61.28125 141.222656 62.691406 C 142.164062 64.101562 139.34375 64.101562 129.949219 67.867188 C 128.070312 68.804688 133.707031 74.449219 130.417969 78.214844 C 129.949219 78.683594 129.011719 79.152344 129.011719 80.09375 C 128.070312 81.503906 129.011719 82.917969 130.417969 83.855469 C 132.296875 84.796875 128.070312 89.03125 120.554688 85.269531 C 103.171875 75.863281 109.28125 91.382812 104.113281 94.675781 C 99.886719 96.085938 98.007812 96.085938 96.597656 97.027344 C 92.839844 99.378906 96.125 105.023438 100.355469 103.613281 C 101.765625 103.140625 101.765625 105.492188 100.824219 106.433594 C 99.886719 107.375 98.945312 108.316406 98.945312 109.257812 C 98.476562 110.667969 100.355469 112.078125 101.765625 112.550781 C 102.234375 112.550781 103.171875 112.550781 104.113281 112.550781 C 105.050781 112.550781 105.523438 113.488281 104.582031 113.960938 C 102.703125 115.839844 101.292969 116.78125 99.886719 118.191406 C 99.414062 118.664062 99.414062 119.132812 99.886719 119.605469 C 100.824219 120.546875 100.824219 121.957031 99.886719 123.367188 C 98.945312 124.777344 97.535156 126.1875 97.535156 128.070312 C 97.535156 128.542969 97.535156 128.542969 98.007812 129.011719 C 98.476562 129.480469 98.945312 130.421875 98.945312 130.894531 C 99.414062 132.773438 97.535156 133.714844 96.125 134.65625 C 90.019531 138.417969 93.308594 143.121094 96.125 142.179688 C 97.066406 141.710938 97.535156 142.652344 97.066406 143.121094 C 97.066406 143.59375 96.597656 144.53125 95.65625 145.472656 Z M 206.519531 190.15625 C 208.398438 189.21875 209.808594 188.277344 211.21875 188.746094 C 211.21875 188.746094 211.21875 189.21875 211.21875 189.21875 L 212.15625 189.21875 C 212.625 189.6875 212.625 190.15625 212.625 190.628906 C 207.929688 192.507812 203.703125 197.210938 188.199219 208.972656 C 189.140625 202.386719 192.898438 194.859375 198.0625 188.746094 C 197.59375 190.628906 203.703125 191.570312 206.519531 190.15625 Z M 190.078125 185.925781 C 190.546875 184.042969 190.546875 183.101562 191.019531 181.691406 C 192.898438 182.160156 195.714844 184.042969 197.125 185.453125 C 191.019531 191.097656 189.609375 192.507812 188.199219 194.390625 C 186.320312 191.570312 189.140625 187.804688 190.078125 185.925781 Z M 185.382812 183.574219 C 185.851562 189.6875 185.851562 195.800781 183.03125 197.210938 C 181.152344 198.152344 179.273438 196.742188 178.335938 195.332031 C 177.394531 193.921875 176.925781 192.039062 176.457031 190.15625 C 177.863281 188.277344 183.972656 185.925781 185.382812 183.574219 Z M 171.289062 193.449219 C 171.289062 193.449219 171.289062 193.921875 171.289062 193.921875 C 171.757812 196.273438 172.226562 195.800781 172.226562 199.09375 C 172.226562 202.386719 174.578125 205.679688 174.578125 208.972656 C 174.578125 210.851562 174.578125 212.734375 174.105469 215.085938 C 173.167969 213.675781 170.347656 212.734375 169.878906 210.851562 C 169.410156 208.972656 169.410156 207.089844 169.410156 205.207031 C 168.9375 200.503906 167.058594 196.273438 166.121094 192.039062 C 168 193.449219 169.410156 193.921875 171.289062 193.449219 Z M 164.242188 191.097656 C 164.710938 192.507812 164.710938 193.921875 165.179688 195.800781 C 164.710938 193.921875 163.773438 192.039062 162.363281 189.6875 C 162.832031 190.628906 163.773438 190.628906 164.242188 191.097656 Z M 158.605469 187.804688 C 161.421875 193.921875 164.242188 199.566406 163.773438 200.503906 C 161.894531 199.566406 158.605469 192.507812 155.316406 186.863281 C 156.257812 186.863281 157.664062 187.335938 158.605469 187.804688 Z M 152.496094 186.394531 C 160.953125 197.683594 161.894531 201.445312 163.300781 205.679688 C 155.316406 199.09375 150.148438 192.507812 144.511719 187.804688 C 146.390625 186.394531 149.210938 185.925781 152.496094 186.394531 Z M 142.164062 191.570312 C 143.101562 192.507812 144.042969 192.980469 144.980469 193.921875 C 147.332031 196.273438 148.738281 199.09375 151.558594 200.503906 C 162.363281 207.089844 167.53125 221.199219 166.589844 222.140625 C 163.300781 214.144531 150.148438 201.917969 140.753906 195.332031 C 141.695312 194.390625 142.164062 192.980469 142.164062 191.570312 Z M 142.164062 191.570312 " fill-opacity="1" fill-rule="nonzero"/></g><g clip-path="url(#bbefa9576f)"><path fill="#81cc68" d="M 78.871094 142.785156 L 276.246094 142.785156 L 276.246094 187.5 L 78.871094 187.5 Z M 78.871094 142.785156 " fill-opacity="1" fill-rule="nonzero"/></g><g fill="#000000" fill-opacity="1"><g transform="translate(144.722129, 173.585272)"><g><path d="M -0.1875 0 L -0.1875 -0.375 L 0.078125 -0.375 C 0.421875 -0.375 0.742188 -0.484375 1.046875 -0.703125 C 1.347656 -0.929688 1.671875 -1.347656 2.015625 -1.953125 C 2.367188 -2.566406 2.804688 -3.445312 3.328125 -4.59375 L 7.03125 -12.375 C 6.332031 -12.601562 5.664062 -12.96875 5.03125 -13.46875 C 4.394531 -13.96875 3.863281 -14.675781 3.4375 -15.59375 C 3.019531 -16.519531 2.8125 -17.742188 2.8125 -19.265625 C 2.8125 -20.734375 3.070312 -22.03125 3.59375 -23.15625 C 4.113281 -24.28125 4.957031 -25.148438 6.125 -25.765625 C 7.300781 -26.390625 8.847656 -26.703125 10.765625 -26.703125 L 18.859375 -26.703125 L 18.859375 -26.328125 L 17.953125 -26.328125 C 17.160156 -26.328125 16.644531 -26.148438 16.40625 -25.796875 C 16.164062 -25.453125 16.046875 -24.695312 16.046875 -23.53125 L 16.046875 -3.171875 C 16.046875 -2.003906 16.164062 -1.242188 16.40625 -0.890625 C 16.644531 -0.546875 17.160156 -0.375 17.953125 -0.375 L 18.859375 -0.375 L 18.859375 0 L 10.0625 0 L 10.0625 -0.375 L 10.890625 -0.375 C 11.660156 -0.375 12.160156 -0.546875 12.390625 -0.890625 C 12.628906 -1.242188 12.75 -2.003906 12.75 -3.171875 L 12.75 -12.15625 L 10.140625 -12.15625 L 6.28125 -3.515625 C 5.832031 -2.617188 5.378906 -1.914062 4.921875 -1.40625 C 4.460938 -0.894531 3.894531 -0.53125 3.21875 -0.3125 C 2.539062 -0.101562 1.691406 0 0.671875 0 Z M 10.703125 -12.53125 L 12.75 -12.53125 L 12.75 -26.328125 L 11.328125 -26.328125 C 9.515625 -26.328125 8.226562 -25.71875 7.46875 -24.5 C 6.707031 -23.28125 6.328125 -21.570312 6.328125 -19.375 C 6.328125 -17.050781 6.675781 -15.328125 7.375 -14.203125 C 8.070312 -13.085938 9.179688 -12.53125 10.703125 -12.53125 Z M 10.703125 -12.53125 "/></g></g></g><g fill="#000000" fill-opacity="1"><g transform="translate(164.617309, 173.585272)"><g><path d="M 0.640625 0 L 0.640625 -0.375 L 1.078125 -0.375 C 1.703125 -0.375 2.175781 -0.425781 2.5 -0.53125 C 2.832031 -0.644531 3.054688 -0.890625 3.171875 -1.265625 C 3.296875 -1.640625 3.359375 -2.226562 3.359375 -3.03125 L 3.359375 -16.984375 C 3.359375 -18.128906 3.203125 -18.863281 2.890625 -19.1875 C 2.585938 -19.507812 1.984375 -19.671875 1.078125 -19.671875 L 0.640625 -19.671875 L 0.640625 -20.046875 L 9.53125 -20.046875 C 11.632812 -20.046875 13.148438 -19.601562 14.078125 -18.71875 C 15.015625 -17.832031 15.484375 -16.617188 15.484375 -15.078125 C 15.484375 -13.648438 15.097656 -12.566406 14.328125 -11.828125 C 13.554688 -11.097656 12.394531 -10.625 10.84375 -10.40625 L 10.84375 -10.328125 C 14.414062 -10.046875 16.203125 -8.460938 16.203125 -5.578125 C 16.203125 -1.859375 14.15625 0 10.0625 0 Z M 6.578125 -10.46875 L 9.046875 -10.46875 C 10.222656 -10.46875 11.0625 -10.882812 11.5625 -11.71875 C 12.0625 -12.5625 12.3125 -13.644531 12.3125 -14.96875 C 12.3125 -16.5625 12.039062 -17.742188 11.5 -18.515625 C 10.96875 -19.285156 10.128906 -19.671875 8.984375 -19.671875 L 6.578125 -19.671875 Z M 6.578125 -0.375 L 9.125 -0.375 C 10.46875 -0.375 11.425781 -0.800781 12 -1.65625 C 12.582031 -2.519531 12.875 -3.875 12.875 -5.71875 C 12.875 -8.632812 11.597656 -10.09375 9.046875 -10.09375 L 6.578125 -10.09375 Z M 6.578125 -0.375 "/></g></g></g><g fill="#000000" fill-opacity="1"><g transform="translate(182.268672, 173.585272)"><g><path d="M 0.640625 0 L 0.640625 -0.375 L 1.125 -0.375 C 2.019531 -0.375 2.625 -0.535156 2.9375 -0.859375 C 3.25 -1.179688 3.40625 -1.953125 3.40625 -3.171875 L 3.40625 -16.90625 C 3.40625 -18.082031 3.253906 -18.835938 2.953125 -19.171875 C 2.648438 -19.503906 2.078125 -19.671875 1.234375 -19.671875 L 0.859375 -19.671875 L 0.859375 -20.046875 L 6.625 -20.046875 L 6.625 -3.140625 C 6.625 -1.941406 6.78125 -1.179688 7.09375 -0.859375 C 7.40625 -0.535156 7.992188 -0.375 8.859375 -0.375 L 9.28125 -0.375 L 9.28125 0 Z M 0.640625 0 "/></g></g></g><g fill="#000000" fill-opacity="1"><g transform="translate(191.99188, 173.585272)"><g><path d="M 0.484375 8.75 L 0.484375 8.375 L 0.671875 8.375 C 1.316406 8.375 1.8125 8.304688 2.15625 8.171875 C 2.507812 8.035156 2.75 7.757812 2.875 7.34375 C 3 6.9375 3.0625 6.3125 3.0625 5.46875 L 3.0625 -17.09375 C 3.0625 -17.863281 2.992188 -18.4375 2.859375 -18.8125 C 2.722656 -19.1875 2.484375 -19.421875 2.140625 -19.515625 C 1.804688 -19.617188 1.351562 -19.671875 0.78125 -19.671875 L 0.453125 -19.671875 L 0.453125 -20.046875 L 6.28125 -20.046875 L 6.28125 -15.78125 L 6.359375 -15.78125 C 6.679688 -17.351562 7.203125 -18.523438 7.921875 -19.296875 C 8.648438 -20.078125 9.675781 -20.46875 11 -20.46875 C 12.894531 -20.46875 14.335938 -19.648438 15.328125 -18.015625 C 16.328125 -16.378906 16.828125 -13.789062 16.828125 -10.25 C 16.828125 -6.582031 16.3125 -3.894531 15.28125 -2.1875 C 14.25 -0.476562 12.796875 0.375 10.921875 0.375 C 9.628906 0.375 8.628906 -0.0078125 7.921875 -0.78125 C 7.222656 -1.550781 6.703125 -2.703125 6.359375 -4.234375 L 6.28125 -4.234375 C 6.3125 -3.328125 6.328125 -2.453125 6.328125 -1.609375 C 6.328125 -0.765625 6.328125 0.109375 6.328125 1.015625 L 6.328125 5.46875 C 6.328125 6.707031 6.476562 7.5 6.78125 7.84375 C 7.09375 8.195312 7.722656 8.375 8.671875 8.375 L 9.28125 8.375 L 9.28125 8.75 Z M 10.140625 -0.21875 C 11.410156 -0.21875 12.304688 -1.015625 12.828125 -2.609375 C 13.347656 -4.210938 13.609375 -6.671875 13.609375 -9.984375 C 13.609375 -13.554688 13.328125 -16.085938 12.765625 -17.578125 C 12.210938 -19.078125 11.335938 -19.828125 10.140625 -19.828125 C 7.597656 -19.828125 6.328125 -16.5625 6.328125 -10.03125 C 6.328125 -6.988281 6.617188 -4.59375 7.203125 -2.84375 C 7.785156 -1.09375 8.765625 -0.21875 10.140625 -0.21875 Z M 10.140625 -0.21875 "/></g></g></g></svg>