<?xml version="1.0" encoding="utf-8"?>
<!-- Generator: Adobe Illustrator 25.2.3, SVG Export Plug-In . SVG Version: 6.00 Build 0)  -->
<svg version="1.1" id="Слой_1" xmlns="http://www.w3.org/2000/svg" xmlns:xlink="http://www.w3.org/1999/xlink" x="0px" y="0px"
	 width="39px" height="39px" fill="white" viewBox="0 0 39 39" style="enable-background:new 0 0 39 39;" xml:space="preserve">
<style type="text/css">
	.st0{fill:none;stroke:white;stroke-width:2.5;}
</style>
<path class="st0" d="M6,1.2h27c2.6,0,4.8,2.1,4.8,4.8v27c0,2.6-2.1,4.8-4.8,4.8H6c-2.6,0-4.8-2.1-4.8-4.8V6C1.2,3.4,3.4,1.2,6,1.2z"
	/>
<path d="M14.7,25c-2.2-0.2-3.7-1.3-4.5-3.4c0.7,0,1.3,0,2,0c0,0,0-0.1,0-0.1c-2.3-0.8-3.6-2.3-3.7-4.8c0.4,0.1,0.7,0.3,1,0.4
	c0.3,0.1,0.6,0.1,1,0.1c-1.1-0.9-1.8-2.1-2-3.5c-0.1-1,0.1-2,0.6-2.9c2.6,3.1,5.9,4.8,10,5c0-0.7-0.1-1.4,0-2
	c0.3-1.8,1.4-3.1,3.2-3.7c1.8-0.6,3.4-0.2,4.8,1c0.3,0.2,0.5,0.3,0.8,0.2c0.8-0.3,1.7-0.6,2.5-0.9c-0.3,1-1,1.8-1.8,2.4
	c0,0,0,0.1,0.1,0.1c0.8-0.2,1.6-0.4,2.4-0.6c-0.6,0.8-1.2,1.5-2,2.1c-0.3,0.2-0.3,0.4-0.4,0.7c-0.1,5.2-2.2,9.3-6.6,12.1
	c-2.5,1.6-5.4,2.1-8.4,1.9c-2-0.2-3.9-0.8-5.6-1.8C8,27.2,7.9,27.2,7.8,27C10.3,27.2,12.6,26.6,14.7,25z"/>
</svg>
