<svg xmlns="http://www.w3.org/2000/svg" xmlns:xlink="http://www.w3.org/1999/xlink" width="500" zoomAndPan="magnify" viewBox="0 0 375 374.999991" height="500" preserveAspectRatio="xMidYMid meet" version="1.0"><defs><g/><clipPath id="8efe6594c7"><path d="M 48 17 L 319.6875 17 L 319.6875 373 L 48 373 Z M 48 17 " clip-rule="nonzero"/></clipPath></defs><g clip-path="url(#8efe6594c7)"><path fill="#000000" d="M 54.769531 153.78125 C 52.558594 155.992188 48.882812 158.203125 48.882812 161.886719 C 48.882812 164.832031 52.558594 168.515625 55.503906 167.042969 C 55.503906 166.304688 56.238281 166.304688 56.976562 167.042969 C 56.238281 169.253906 56.976562 171.460938 57.710938 172.9375 C 56.238281 175.144531 54.03125 178.828125 55.503906 181.039062 C 56.238281 182.511719 61.390625 183.988281 57.710938 190.617188 C 56.238281 192.828125 54.769531 195.039062 55.503906 197.246094 C 55.503906 198.722656 57.710938 200.195312 59.183594 200.195312 C 61.390625 200.195312 59.917969 202.40625 59.917969 203.140625 C 59.183594 204.613281 57.710938 206.824219 57.710938 208.296875 C 56.238281 210.507812 58.449219 212.71875 61.390625 213.457031 C 61.390625 217.140625 54.769531 223.03125 58.449219 227.453125 L 63.597656 227.453125 L 60.65625 236.292969 C 60.65625 237.03125 60.65625 237.03125 61.390625 237.765625 C 70.222656 245.871094 82.730469 232.609375 90.089844 229.664062 C 96.714844 227.453125 96.714844 232.609375 98.183594 234.082031 C 100.394531 236.292969 104.074219 234.820312 106.28125 231.875 C 107.753906 230.398438 110.695312 229.664062 112.902344 230.398438 C 112.902344 230.398438 113.640625 230.398438 113.640625 231.136719 C 114.375 231.136719 114.375 231.875 115.109375 231.875 C 115.847656 232.609375 116.582031 233.347656 118.054688 233.347656 C 134.242188 245.132812 163.679688 276.078125 164.414062 280.496094 C 165.152344 282.707031 164.414062 284.179688 164.414062 286.390625 C 164.414062 290.8125 167.359375 293.757812 168.832031 297.441406 C 171.039062 301.863281 165.152344 307.757812 165.152344 313.648438 C 165.152344 323.226562 160 332.804688 160 342.382812 C 160.734375 359.328125 160 364.484375 148.226562 372.585938 L 205.625 372.585938 C 193.113281 361.535156 192.378906 337.960938 193.113281 321.753906 C 193.851562 313.648438 189.433594 304.808594 192.378906 297.441406 C 194.585938 292.285156 197.53125 287.863281 200.472656 282.707031 C 202.679688 277.550781 204.152344 271.65625 206.359375 266.5 C 214.457031 242.925781 226.964844 235.558594 240.949219 228.925781 C 254.195312 230.398438 253.457031 226.714844 251.25 234.820312 C 249.777344 237.765625 259.34375 239.242188 264.496094 236.292969 C 272.589844 232.609375 268.175781 224.507812 271.855469 225.980469 C 279.214844 228.925781 285.835938 231.136719 292.460938 231.136719 C 295.402344 231.136719 299.820312 229.664062 300.554688 226.714844 C 301.289062 225.242188 299.082031 225.242188 299.082031 224.507812 C 299.082031 222.296875 301.289062 221.558594 302.761719 220.824219 C 304.96875 221.558594 306.441406 222.296875 307.914062 220.824219 C 308.648438 220.085938 307.914062 217.875 307.175781 217.875 C 306.441406 217.875 306.441406 217.875 305.707031 217.875 C 307.914062 211.980469 299.820312 215.664062 299.082031 213.457031 C 296.140625 203.878906 305.707031 209.773438 308.648438 207.5625 C 309.386719 206.824219 309.386719 205.351562 307.914062 205.351562 C 306.441406 205.351562 305.707031 205.351562 304.96875 204.613281 C 306.441406 203.140625 307.175781 200.929688 306.441406 197.984375 C 306.441406 195.773438 304.96875 196.511719 303.496094 195.773438 C 307.175781 194.300781 310.121094 191.355469 309.386719 187.671875 C 309.386719 186.195312 307.175781 186.933594 305.707031 184.722656 C 307.175781 183.25 310.121094 179.566406 309.386719 177.355469 C 310.121094 177.355469 310.121094 176.621094 310.855469 176.621094 C 313.0625 175.144531 315.273438 173.671875 315.273438 170.726562 C 316.007812 166.304688 309.386719 161.886719 312.328125 157.464844 C 313.800781 154.519531 319.6875 153.042969 319.6875 150.097656 C 319.6875 149.359375 318.953125 149.359375 318.953125 148.625 C 316.742188 147.152344 313.0625 147.886719 310.855469 149.359375 C 310.121094 150.097656 308.648438 149.359375 308.648438 147.886719 C 309.386719 145.675781 310.121094 143.46875 310.855469 141.257812 C 312.328125 138.308594 311.59375 133.152344 307.914062 133.152344 C 306.441406 133.152344 304.96875 133.152344 303.496094 133.152344 C 299.820312 133.152344 296.875 128.734375 297.609375 125.785156 C 298.347656 123.574219 293.929688 123.574219 288.042969 123.574219 C 285.101562 123.574219 285.101562 114.734375 291.722656 111.050781 C 293.195312 110.3125 292.460938 108.839844 290.988281 108.105469 C 288.042969 108.105469 280.683594 111.050781 279.949219 106.628906 C 279.214844 104.421875 280.683594 95.578125 287.308594 91.160156 C 290.253906 88.949219 293.195312 87.476562 294.667969 83.792969 C 296.140625 80.84375 293.929688 77.160156 291.722656 77.160156 C 288.78125 77.160156 291.722656 63.902344 293.195312 60.953125 C 294.667969 58.007812 286.574219 58.742188 283.628906 60.21875 C 281.421875 60.953125 279.214844 55.058594 282.15625 50.640625 C 284.363281 47.691406 276.269531 47.691406 272.589844 48.429688 C 269.648438 49.167969 269.648438 39.589844 270.382812 36.640625 C 270.382812 32.222656 261.550781 38.851562 261.550781 35.167969 C 261.550781 14.539062 265.96875 19.699219 243.15625 27.066406 C 227.703125 32.222656 224.023438 21.171875 222.550781 19.699219 C 218.871094 16.75 214.457031 20.433594 210.777344 21.90625 C 203.417969 24.117188 196.792969 17.488281 189.433594 17.488281 C 180.605469 17.488281 171.039062 24.855469 163.679688 19.699219 C 158.527344 16.015625 158.527344 16.015625 153.378906 20.433594 C 145.28125 27.066406 137.921875 18.960938 132.035156 18.222656 C 128.355469 17.488281 124.675781 21.90625 126.148438 24.117188 C 127.621094 26.328125 123.207031 26.328125 108.488281 32.222656 C 105.542969 33.695312 114.375 42.535156 109.222656 48.429688 C 108.488281 49.167969 107.015625 49.902344 107.015625 51.375 C 105.542969 53.585938 107.015625 55.796875 109.222656 57.269531 C 112.167969 58.742188 105.542969 65.375 93.769531 59.480469 C 66.542969 44.746094 76.109375 69.058594 68.015625 74.214844 C 61.390625 76.425781 58.449219 76.425781 56.238281 77.898438 C 50.351562 81.582031 55.503906 90.421875 62.128906 88.210938 C 64.335938 87.476562 64.335938 91.160156 62.863281 92.632812 C 61.390625 94.105469 59.917969 95.578125 59.917969 97.054688 C 59.183594 99.261719 62.128906 101.472656 64.335938 102.210938 C 65.070312 102.210938 66.542969 102.210938 68.015625 102.210938 C 69.484375 102.210938 70.222656 103.683594 68.75 104.421875 C 65.804688 107.367188 63.597656 108.839844 61.390625 111.050781 C 60.65625 111.789062 60.65625 112.523438 61.390625 113.261719 C 62.863281 114.734375 62.863281 116.945312 61.390625 119.15625 C 59.917969 121.363281 57.710938 123.574219 57.710938 126.523438 C 57.710938 127.257812 57.710938 127.257812 58.449219 127.996094 C 59.183594 128.730469 59.917969 130.207031 59.917969 130.941406 C 60.65625 133.890625 57.710938 135.363281 55.503906 136.835938 C 45.9375 142.730469 51.089844 150.097656 55.503906 148.625 C 56.976562 147.886719 57.710938 149.359375 56.976562 150.097656 C 56.976562 150.835938 56.238281 152.308594 54.769531 153.78125 Z M 228.4375 223.769531 C 231.382812 222.296875 233.589844 220.824219 235.796875 221.558594 C 235.796875 221.558594 235.796875 222.296875 235.796875 222.296875 L 237.269531 222.296875 C 238.003906 223.03125 238.003906 223.769531 238.003906 224.507812 C 230.644531 227.453125 224.023438 234.820312 199.738281 253.238281 C 201.210938 242.925781 207.097656 231.136719 215.191406 221.558594 C 214.457031 224.507812 224.023438 225.980469 228.4375 223.769531 Z M 202.679688 217.140625 C 203.417969 214.191406 203.417969 212.71875 204.152344 210.507812 C 207.097656 211.246094 211.511719 214.191406 213.71875 216.402344 C 204.152344 225.242188 201.945312 227.453125 199.738281 230.398438 C 196.792969 225.980469 201.210938 220.085938 202.679688 217.140625 Z M 195.324219 213.457031 C 196.058594 223.03125 196.058594 232.609375 191.644531 234.820312 C 188.699219 236.292969 185.757812 234.082031 184.285156 231.875 C 182.8125 229.664062 182.078125 226.714844 181.339844 223.769531 C 183.546875 220.824219 193.113281 217.140625 195.324219 213.457031 Z M 173.246094 228.925781 C 173.246094 228.925781 173.246094 229.664062 173.246094 229.664062 C 173.980469 233.347656 174.71875 232.609375 174.71875 237.765625 C 174.71875 242.925781 178.398438 248.082031 178.398438 253.238281 C 178.398438 256.183594 178.398438 259.132812 177.660156 262.816406 C 176.191406 260.605469 171.773438 259.132812 171.039062 256.183594 C 170.300781 253.238281 170.300781 250.292969 170.300781 247.34375 C 169.566406 239.976562 166.621094 233.347656 165.152344 226.714844 C 168.09375 228.925781 170.300781 229.664062 173.246094 228.925781 Z M 162.207031 225.242188 C 162.945312 227.453125 162.945312 229.664062 163.679688 232.609375 C 162.945312 229.664062 161.472656 226.714844 159.265625 223.03125 C 160 224.507812 161.472656 224.507812 162.207031 225.242188 Z M 153.378906 220.085938 C 157.792969 229.664062 162.207031 238.503906 161.472656 239.976562 C 158.527344 238.503906 153.378906 227.453125 148.226562 218.613281 C 149.699219 218.613281 151.90625 219.347656 153.378906 220.085938 Z M 143.808594 217.875 C 157.054688 235.558594 158.527344 241.449219 160.734375 248.082031 C 148.226562 237.765625 140.132812 227.453125 131.300781 220.085938 C 134.242188 217.875 138.660156 217.140625 143.808594 217.875 Z M 127.621094 225.980469 C 129.09375 227.453125 130.566406 228.191406 132.035156 229.664062 C 135.714844 233.347656 137.921875 237.765625 142.339844 239.976562 C 159.265625 250.292969 167.359375 272.394531 165.886719 273.867188 C 160.734375 261.34375 140.132812 242.1875 125.414062 231.875 C 126.886719 230.398438 127.621094 228.191406 127.621094 225.980469 Z M 127.621094 225.980469 " fill-opacity="1" fill-rule="nonzero"/></g><g fill="#ffffff" fill-opacity="1"><g transform="translate(95.266141, 191.600013)"><g><path d="M -0.375 0 L -0.375 -0.921875 L 0 -0.921875 C 0.613281 -0.921875 1.210938 -1.132812 1.796875 -1.5625 C 2.378906 -1.988281 3.128906 -3.015625 4.046875 -4.640625 C 4.960938 -6.265625 6.21875 -8.859375 7.8125 -12.421875 L 16.28125 -30.90625 C 14.625 -31.519531 13.015625 -32.472656 11.453125 -33.765625 C 9.890625 -35.054688 8.601562 -36.832031 7.59375 -39.09375 C 6.582031 -41.363281 6.078125 -44.3125 6.078125 -47.9375 C 6.078125 -53.394531 7.671875 -57.71875 10.859375 -60.90625 C 14.046875 -64.09375 19.472656 -65.6875 27.140625 -65.6875 L 51.421875 -65.6875 L 51.421875 -64.765625 L 48.765625 -64.765625 C 47.046875 -64.765625 45.894531 -64.363281 45.3125 -63.5625 C 44.726562 -62.769531 44.4375 -61.148438 44.4375 -58.703125 L 44.4375 -6.90625 C 44.4375 -4.507812 44.726562 -2.910156 45.3125 -2.109375 C 45.894531 -1.316406 47.046875 -0.921875 48.765625 -0.921875 L 51.421875 -0.921875 L 51.421875 0 L 26.21875 0 L 26.21875 -0.921875 L 28.15625 -0.921875 C 29.75 -0.921875 30.820312 -1.316406 31.375 -2.109375 C 31.925781 -2.910156 32.203125 -4.507812 32.203125 -6.90625 L 32.203125 -30.359375 L 27.6875 -30.359375 L 18.765625 -8.734375 C 17.722656 -6.523438 16.554688 -4.773438 15.265625 -3.484375 C 13.984375 -2.203125 12.34375 -1.300781 10.34375 -0.78125 C 8.351562 -0.257812 5.765625 0 2.578125 0 Z M 28.796875 -31.28125 L 32.203125 -31.28125 L 32.203125 -64.765625 L 29.53125 -64.765625 C 25.789062 -64.765625 23.140625 -63.414062 21.578125 -60.71875 C 20.015625 -58.019531 19.234375 -53.878906 19.234375 -48.296875 C 19.234375 -42.347656 19.984375 -38.023438 21.484375 -35.328125 C 22.984375 -32.628906 25.421875 -31.28125 28.796875 -31.28125 Z M 28.796875 -31.28125 "/></g></g></g><g fill="#ffffff" fill-opacity="1"><g transform="translate(148.621652, 191.600013)"><g><path d="M 1.203125 0 L 1.203125 -0.921875 L 2.203125 -0.921875 C 3.984375 -0.921875 5.285156 -1.285156 6.109375 -2.015625 C 6.941406 -2.753906 7.359375 -4.472656 7.359375 -7.171875 L 7.359375 -42.046875 C 7.359375 -44.617188 6.925781 -46.316406 6.0625 -47.140625 C 5.207031 -47.972656 3.921875 -48.390625 2.203125 -48.390625 L 1.203125 -48.390625 L 1.203125 -49.3125 L 25.671875 -49.3125 C 31.253906 -49.3125 35.300781 -48.269531 37.8125 -46.1875 C 40.320312 -44.101562 41.578125 -41.160156 41.578125 -37.359375 C 41.578125 -33.796875 40.503906 -31.0625 38.359375 -29.15625 C 36.210938 -27.257812 32.875 -26.097656 28.34375 -25.671875 L 28.34375 -25.484375 C 33.25 -25.179688 37.019531 -24.078125 39.65625 -22.171875 C 42.289062 -20.265625 43.609375 -17.410156 43.609375 -13.609375 C 43.609375 -9.316406 42.316406 -5.972656 39.734375 -3.578125 C 37.160156 -1.191406 33.054688 0 27.421875 0 Z M 19.234375 -25.765625 L 23.1875 -25.765625 C 25.570312 -25.765625 27.285156 -26.710938 28.328125 -28.609375 C 29.378906 -30.515625 29.90625 -33.304688 29.90625 -36.984375 C 29.90625 -40.910156 29.367188 -43.789062 28.296875 -45.625 C 27.222656 -47.46875 25.550781 -48.390625 23.28125 -48.390625 L 19.234375 -48.390625 Z M 19.234375 -0.921875 L 23.375 -0.921875 C 26.1875 -0.921875 28.191406 -1.976562 29.390625 -4.09375 C 30.585938 -6.207031 31.1875 -9.566406 31.1875 -14.171875 C 31.1875 -21.285156 28.582031 -24.84375 23.375 -24.84375 L 19.234375 -24.84375 Z M 19.234375 -0.921875 "/></g></g></g><g fill="#ffffff" fill-opacity="1"><g transform="translate(195.261725, 191.600013)"><g><path d="M 1.203125 0 L 1.203125 -0.921875 L 2.203125 -0.921875 C 3.984375 -0.921875 5.285156 -1.363281 6.109375 -2.25 C 6.941406 -3.144531 7.359375 -4.972656 7.359375 -7.734375 L 7.359375 -41.953125 C 7.359375 -44.585938 6.941406 -46.316406 6.109375 -47.140625 C 5.285156 -47.972656 4.015625 -48.390625 2.296875 -48.390625 L 1.109375 -48.390625 L 1.109375 -49.3125 L 19.234375 -49.3125 L 19.234375 -7.546875 C 19.234375 -4.847656 19.644531 -3.066406 20.46875 -2.203125 C 21.300781 -1.347656 22.601562 -0.921875 24.375 -0.921875 L 25.296875 -0.921875 L 25.296875 0 Z M 1.203125 0 "/></g></g></g><g fill="#ffffff" fill-opacity="1"><g transform="translate(221.93948, 191.600013)"><g><path d="M 0.921875 21.0625 L 0.921875 20.140625 L 1.375 20.140625 C 3.519531 20.140625 4.988281 19.664062 5.78125 18.71875 C 6.582031 17.769531 6.984375 15.820312 6.984375 12.875 L 6.984375 -42.5 C 6.984375 -45.132812 6.523438 -46.773438 5.609375 -47.421875 C 4.691406 -48.066406 3.554688 -48.390625 2.203125 -48.390625 L 1.75 -48.390625 L 1.75 -49.3125 L 18.859375 -49.3125 L 18.859375 -39.921875 L 19.046875 -39.921875 C 19.722656 -43.484375 20.945312 -46.125 22.71875 -47.84375 C 24.5 -49.5625 26.984375 -50.421875 30.171875 -50.421875 C 34.960938 -50.421875 38.660156 -48.363281 41.265625 -44.25 C 43.867188 -40.144531 45.171875 -33.675781 45.171875 -24.84375 C 45.171875 -15.882812 43.851562 -9.347656 41.21875 -5.234375 C 38.582031 -1.128906 34.867188 0.921875 30.078125 0.921875 C 26.710938 0.921875 24.226562 0.03125 22.625 -1.75 C 21.03125 -3.53125 19.835938 -6.132812 19.046875 -9.5625 L 18.859375 -9.5625 C 18.921875 -7.414062 18.96875 -5.269531 19 -3.125 C 19.03125 -0.976562 19.046875 1.164062 19.046875 3.3125 L 19.046875 12.875 C 19.046875 15.820312 19.457031 17.769531 20.28125 18.71875 C 21.113281 19.664062 22.570312 20.140625 24.65625 20.140625 L 26.40625 20.140625 L 26.40625 21.0625 Z M 26.765625 -1.015625 C 29.097656 -1.015625 30.753906 -2.789062 31.734375 -6.34375 C 32.722656 -9.90625 33.21875 -16.007812 33.21875 -24.65625 C 33.21875 -30.539062 32.984375 -35.203125 32.515625 -38.640625 C 32.054688 -42.078125 31.335938 -44.546875 30.359375 -46.046875 C 29.378906 -47.546875 28.0625 -48.296875 26.40625 -48.296875 C 23.769531 -48.296875 21.867188 -46.253906 20.703125 -42.171875 C 19.535156 -38.097656 18.953125 -32.257812 18.953125 -24.65625 C 18.953125 -16.925781 19.59375 -11.050781 20.875 -7.03125 C 22.164062 -3.019531 24.128906 -1.015625 26.765625 -1.015625 Z M 26.765625 -1.015625 "/></g></g></g></svg>